<svg width="42" height="42" xmlns="http://www.w3.org/2000/svg">

 <g>
  <title>background</title>
  <rect fill="none" id="canvas_background" height="44" width="44" y="-1" x="-1"/>
 </g>
 <g>
  <title>Layer 1</title>
  <g transform="rotate(-180 20.11684799194336,17.776348114013672) " stroke="null" id="svg_1">
   <path stroke="null" transform="rotate(-180 19.28681755065918,14.470261573791502) " id="svg_2" d="m37.311881,3.977662c-1.861489,-3.202386 -4.386481,-5.737926 -7.575639,-7.607097c-3.189728,-1.869075 -6.671761,-2.803422 -10.448758,-2.803422c-3.776617,0 -7.259695,0.934347 -10.448853,2.803422c-3.189348,1.868885 -5.71434,4.404425 -7.575829,7.607097c-1.861584,3.202863 -2.792044,6.700491 -2.792044,10.4926c0,3.792299 0.930745,7.289356 2.791759,10.492409c1.861394,3.202386 4.386386,5.737926 7.575734,7.607288c3.189538,1.86898 6.672331,2.803422 10.448853,2.803422s7.259695,-0.934442 10.449043,-2.803422c3.189158,-1.868694 5.714055,-4.404902 7.575354,-7.607288c1.861015,-3.202767 2.79138,-6.700301 2.79138,-10.492409c0.000095,-3.79249 -0.930365,-7.290214 -2.791,-10.4926zm-7.101248,11.717042l-12.30569,12.357386c-0.343381,0.344434 -0.749608,0.517461 -1.219633,0.517461c-0.470119,0 -0.876727,-0.172932 -1.219917,-0.517461l-2.764608,-2.777016c-0.343381,-0.344434 -0.515118,-0.752931 -0.515118,-1.224728c0,-0.471034 0.171738,-0.880103 0.515118,-1.224728l8.321355,-8.355452l-8.321735,-8.355833c-0.343381,-0.344338 -0.515118,-0.752931 -0.515118,-1.224537c0,-0.471797 0.171738,-0.880008 0.515118,-1.224728l2.764608,-2.777016c0.34357,-0.344624 0.749798,-0.51708 1.219917,-0.51708c0.469929,0 0.876537,0.172455 1.219917,0.51708l12.30569,12.357004c0.343001,0.344529 0.514549,0.752931 0.514549,1.224728c0.000095,0.471988 -0.171453,0.880485 -0.514454,1.224918z"/>
  </g>
  <g id="svg_3"/>
  <g id="svg_4"/>
  <g id="svg_5"/>
  <g id="svg_6"/>
  <g id="svg_7"/>
  <g id="svg_8"/>
  <g id="svg_9"/>
  <g id="svg_10"/>
  <g id="svg_11"/>
  <g id="svg_12"/>
  <g id="svg_13"/>
  <g id="svg_14"/>
  <g id="svg_15"/>
  <g id="svg_16"/>
  <g id="svg_17"/>
 </g>
</svg>